<?xml version="1.0" encoding="UTF-8"?> <svg xmlns="http://www.w3.org/2000/svg" id="Layer_1" data-name="Layer 1" viewBox="0 0 388.32 134.08"><defs><style>.cls-1{fill:#434444;}.cls-2{fill:#e74a34;}</style></defs><path class="cls-1" d="M7.13,95.51c6.45,6.95,13.44,12.34,21.92,15.57,6.59,2.51,13.36,3.31,20.25,1.38,5.23-1.47,9.13-4.56,10.31-10.06,1.27-5.88,0-11.15-4.76-15.27S44.41,81.28,38.78,79.2A139.48,139.48,0,0,1,23.4,73C8.73,65.46,4.28,53.05,5.93,38.14,8.07,18.8,22.88,9.52,39.46,8.7,52.88,8,64.91,12,75.82,19.65c1.57,1.1,2.1,2,1.25,3.94-1.93,4.45-3.67,9-5.24,13.58-.74,2.15-1.28,2.56-3.34,1.13C61,33.12,52.92,29.44,43.74,28.44A25,25,0,0,0,35.2,29c-4.85,1.16-8.81,3.67-9.89,8.82-1.15,5.45.09,10.45,4.42,14.34,3.69,3.33,8.2,5.19,12.75,7,6,2.35,12.24,4.32,18,7.34,21.36,11.15,25.58,40.23,8.2,57-6.49,6.25-14.59,9-23.38,9.64C27.59,134.25,13,127.45.88,115a2.08,2.08,0,0,1-.62-2.71C2.58,106.84,4.75,101.36,7.13,95.51Z"></path><path class="cls-1" d="M143.71,121.55c-8.14,10.59-18.77,13-30.47,11.38-12.66-1.78-21.34-12.78-21.81-26.77-.29-8.59,1.5-16.56,8.09-22.72,5.78-5.39,12.91-7.18,20.6-7.23,6.9,0,13.81-.08,20.71,0,2,0,2.8-.37,2.79-2.63-.09-17.22-13-21-25.85-17.66a35.66,35.66,0,0,0-13.08,6.93c-1.4,1.11-2.14,1.46-3-.57-1.56-3.68-3.39-7.25-5.17-10.83-.44-.87-.61-1.44.32-2.15,13.1-10,27.67-13.82,43.72-9.34,11.39,3.18,18.76,13.61,19.22,26.47.72,20.16.44,40.33.45,60.49,0,5.56,0,5.56-5.49,5.56-2.88,0-5.76-.1-8.63,0-1.81.09-2.57-.33-2.43-2.31C143.85,127.6,143.71,124.93,143.71,121.55Zm-.15-25.14c0-1.15-.07-2.3,0-3.43.12-1.39-.43-1.81-1.8-1.79-7.46.06-14.92-.12-22.37.14-4.17.14-8.21,1.25-10.58,5.21-4.47,7.48-.31,17.8,8.12,20C128.88,119.59,144.51,111.92,143.56,96.41Z"></path><path class="cls-1" d="M235.2,115.84c-8.15,15.73-25.38,22.06-40.09,14.41-8-4.15-11.81-11.36-14-19.68a59.69,59.69,0,0,1-1.55-14.76c-.09-18,0-35.93-.1-53.9,0-2.48.72-3,3-2.91A107.6,107.6,0,0,0,194,39c2.28-.13,2.61.7,2.6,2.73-.08,17.2-.12,34.4,0,51.6.05,6.8,1.81,13.13,7.56,17.49,7,5.32,17.46,3.88,23.54-3,5.85-6.65,7.35-14.73,7.43-23.17.13-14.33.09-28.66,0-43,0-2.22.61-2.69,2.7-2.6,3.92.17,7.86.11,11.78,0,1.61-.05,2.32.17,2.32,2.1q-.1,44.58,0,89.15c0,1.67-.29,2.35-2.17,2.28-4.21-.15-8.43-.11-12.65,0-1.51,0-2-.41-1.94-1.92C235.25,125.7,235.2,120.77,235.2,115.84Z"></path><path class="cls-1" d="M315.53,110.92c1.32,4.9,2.55,9.58,3.87,14.24.24.85.3,1.39-.5,1.94-7.76,5.35-16.11,8.08-25.44,5-7.82-2.55-11.47-8.78-13.29-16.3a43.29,43.29,0,0,1-1.07-10.22c0-15-.05-30,.06-45,0-2.23-.54-3.08-2.83-2.81-1.61.19-3.27-.11-4.88.07-2.32.27-3.24-.42-3.08-2.9a93.49,93.49,0,0,0,0-10.32c-.09-1.86.57-2.28,2.27-2.16,2.1.14,4.23-.11,6.32.07,1.89.16,2.19-.6,2.17-2.27-.09-6.88.08-13.77-.1-20.65-.06-2.47.74-3.06,3.07-2.93a94.72,94.72,0,0,0,10.92,0c2.4-.15,2.82.75,2.78,2.89-.13,6.69.08,13.39-.11,20.08-.08,2.5.74,3,3.05,2.91,5.74-.17,11.5,0,17.25-.11,2.08-.05,2.59.61,2.5,2.57-.16,3.44-.17,6.89,0,10.32.11,2.11-.71,2.55-2.64,2.52-5.85-.11-11.7,0-17.54-.09-2,0-2.62.46-2.6,2.52.09,14.15,0,28.3.06,42.44a34.27,34.27,0,0,0,.43,4.85c.91,5.92,4.84,8.45,10.79,7C310,113.84,312.64,112.31,315.53,110.92Z"></path><path class="cls-1" d="M334.74,85.71c0-14.61,0-29.23-.05-43.85,0-2.1.32-3,2.73-2.87,4,.24,8.05.13,12.07,0,1.53,0,1.92.45,1.91,1.94q-.06,44.71,0,89.43c0,1.88-.67,2.2-2.33,2.16-4-.1-8.06-.15-12.07,0-2,.08-2.33-.65-2.32-2.43C334.77,115.33,334.74,100.52,334.74,85.71Z"></path><path class="cls-1" d="M352.77,12.07c-.07,5.29-1.51,9.59-6.37,11.88-3.75,1.76-8.07.37-10.64-3.17C332.49,16.3,332.44,8.6,335.67,4A8.7,8.7,0,0,1,344.88.18c3.7.67,6.9,4.42,7.62,8.77C352.69,10.07,352.7,11.23,352.77,12.07Z"></path><path class="cls-2" d="M388.31,122.84a12.72,12.72,0,0,1-2.11,7.24,8.12,8.12,0,0,1-14-.08,14.19,14.19,0,0,1-.38-14.73c3.24-6,11.22-6.06,14.74-.18A13.77,13.77,0,0,1,388.31,122.84Z"></path></svg> 